<?xml version="1.0" encoding="UTF-8"?>
<svg id="_레이어_1" xmlns="http://www.w3.org/2000/svg" version="1.1" viewBox="0 0 400 66.42" fill="currentColor">
  <!-- Generator: Adobe Illustrator 30.1.0, SVG Export Plug-In . SVG Version: 2.1.1 Build 136)  -->
  <path d="M396.26,17.47c-1.98-1.35-4.55-2.09-7.22-2.09h-38.05v7.52h38.05c1.98,0,3.3.01,3.3,1.09v4.51h-30.59c-2.67-.01-5.24.73-7.22,2.08-2.38,1.62-3.74,4-3.74,6.52v4.62c0,2.52,1.37,4.9,3.75,6.51,1.99,1.34,4.54,2.09,7.22,2.09h27.27c2.67,0,5.23-.74,7.22-2.09,2.38-1.62,3.75-4,3.75-6.51v-17.73c0-2.53-1.37-4.9-3.75-6.52h.01ZM389.04,42.8h-27.28c-1.83,0-3.31-.05-3.31-1.1l-.02-4.51s.15-.58.46-.79c.71-.48,1.75-.4,2.85-.4h30.6v5.61c0,1.21-1.49,1.18-3.31,1.18h0Z"/>
  <path d="M260.89,17.52c-1.98-1.34-4.55-2.09-7.23-2.09h-27.27c-2.67,0-5.24.75-7.23,2.09-2.37,1.62-3.74,4-3.74,6.52v17.74c0,2.52,1.37,4.9,3.74,6.51,1.99,1.34,4.55,2.09,7.22,2.09h27.27c2.67,0,5.24-.74,7.23-2.09,2.38-1.62,3.75-3.99,3.75-6.51v-17.74c0-2.52-1.36-4.9-3.75-6.52h.01ZM256.95,24.66v16.51c0,1.29-2.23,2.51-4.58,2.51h-24.69c-2.35,0-4.58-1.22-4.58-2.51v-16.56c0-1.29,2.22-2.52,4.58-2.52h24.69c2.35,0,4.58,1.22,4.58,2.52,0,0,0,.05,0,.05Z"/>
  <path d="M97.8,15.31h-27.27c-6.05,0-10.97,5.08-10.97,11.33v39.06h7.66v-15.44h30.59c2.98,0,5.77-1.22,7.85-3.43,2.01-2.14,3.11-4.94,3.11-7.91v-12.29c0-6.26-4.91-11.34-10.96-11.34v.02ZM101.11,38.93c0,1.07-.39,2.06-1.08,2.8-.62.66-1.4,1.02-2.22,1.02h-30.58v-16.11c0-2.1,1.48-3.82,3.31-3.82h27.27c1.82,0,3.31,1.71,3.31,3.82v12.29h0Z"/>
  <path d="M45.47,17.54c-1.98-1.35-4.55-2.09-7.22-2.09H.2v7.52h38.05c1.98,0,3.3.01,3.3,1.09v4.51H10.96c-2.67-.01-5.24.73-7.22,2.08-2.38,1.62-3.74,4-3.74,6.52v4.62c0,2.52,1.37,4.9,3.75,6.51,1.99,1.34,4.54,2.09,7.22,2.09h27.27c2.67,0,5.23-.74,7.22-2.09,2.38-1.62,3.75-4,3.75-6.51v-17.73c0-2.53-1.37-4.9-3.75-6.52h0ZM38.25,42.87H10.97c-1.83,0-3.31-.05-3.31-1.1l-.02-4.51s.15-.58.46-.79c.71-.48,1.75-.4,2.85-.4h30.6v5.61c0,1.21-1.49,1.18-3.31,1.18h0Z"/>
  <rect x="331.64" y="4.06" width="7.67" height="7.67"/>
  <path d="M164.52,17.52c-1.98-1.34-4.55-2.09-7.23-2.09h-27.27c-2.67,0-5.24.75-7.23,2.09-2.37,1.62-3.74,4-3.74,6.52v17.74c0,2.52,1.37,4.9,3.74,6.51,1.99,1.34,4.55,2.09,7.22,2.09h27.27c2.67,0,5.24-.74,7.23-2.09,2.38-1.62,3.75-3.99,3.75-6.51v-17.74c0-2.52-1.36-4.9-3.75-6.52h.01ZM160.58,24.66v16.51c0,1.29-2.23,2.51-4.58,2.51h-24.69c-2.35,0-4.58-1.22-4.58-2.51v-16.56c0-1.29,2.22-2.52,4.58-2.52h24.69c2.35,0,4.58,1.22,4.58,2.52,0,0,0,.05,0,.05Z"/>
  <path d="M310.14,15.44h-35.2v34.94h7.67v-27.42h27.54c1.82,0,3.31,1.71,3.31,3.82v23.61h7.67v-23.61c0-6.24-4.92-11.33-10.97-11.33h-.02Z"/>
  <rect x="178.79" width="7.67" height="50.39"/>
  <rect x="331.64" y="15.45" width="7.67" height="34.94"/>
  <rect x="197" width="7.67" height="50.39"/>
</svg>